<svg width="1032" height="566" viewBox="0 0 1032 566" fill="none" xmlns="http://www.w3.org/2000/svg">
    <g clip-path="url(#clip0_4_4560)">
    <path d="M1434.3 92.4071C1437.06 108.659 1429.69 125.925 1413.81 143.265C1397.93 160.599 1373.61 177.936 1342.64 194.296C1280.72 227.013 1192.34 255.77 1092.2 272.796C992.05 289.821 899.137 291.883 829.88 281.467C795.248 276.259 766.56 267.935 745.846 256.822C725.124 245.705 712.461 231.844 709.698 215.593C706.935 199.341 714.306 182.075 730.191 164.735C746.069 147.401 770.394 130.064 801.359 113.704C863.284 80.987 951.659 52.2296 1051.8 35.2044C1151.95 18.1793 1244.86 16.1169 1314.12 26.5327C1348.75 31.7411 1377.44 40.0653 1398.15 51.1783C1418.88 62.2951 1431.54 76.1555 1434.3 92.4071Z" stroke="#4B4981"/>
    <path d="M1579.59 67.7074C1583.47 90.5549 1573.11 114.796 1550.84 139.101C1528.58 163.4 1494.49 187.693 1451.12 210.61C1364.37 256.442 1240.58 296.721 1100.32 320.567C960.051 344.413 829.907 347.303 732.888 332.712C684.375 325.416 644.174 313.754 615.136 298.175C586.09 282.593 568.294 263.14 564.409 240.293C560.525 217.445 570.894 193.204 593.158 168.899C615.417 144.6 649.506 120.308 692.882 97.3902C779.629 51.5581 903.417 11.2787 1043.68 -12.5671C1183.95 -36.4128 1314.09 -39.3032 1411.11 -24.7121C1459.62 -17.4162 1499.83 -5.75359 1528.86 9.82481C1557.91 25.4071 1575.71 44.86 1579.59 67.7074Z" stroke="#4B4981"/>
    <path d="M1714.34 43.0652C1719.31 72.2759 1706.05 103.246 1677.63 134.27C1649.21 165.289 1605.7 196.291 1550.36 225.535C1439.66 284.019 1281.71 335.414 1102.74 365.839C923.769 396.265 757.707 399.954 633.905 381.335C572.001 372.025 520.693 357.142 483.625 337.256C446.549 317.366 423.8 292.518 418.834 263.307C413.868 234.096 427.128 203.127 455.548 172.102C483.962 141.083 527.47 110.081 582.819 80.8376C693.513 22.3535 851.465 -29.0413 1030.44 -59.4671C1209.41 -89.8929 1375.47 -93.5819 1499.27 -74.963C1561.17 -65.6531 1612.48 -50.7699 1649.55 -30.8836C1686.63 -10.9935 1709.37 13.8546 1714.34 43.0652Z" stroke="#4B4981"/>
    <path d="M1843.22 18.455C1849.24 53.8991 1833.15 91.4604 1798.7 129.068C1764.26 166.669 1711.52 204.244 1644.44 239.685C1510.29 310.563 1318.87 372.847 1101.98 409.718C885.099 446.59 683.851 451.061 533.813 428.497C458.791 417.214 396.602 399.176 351.667 375.069C306.725 350.959 279.125 320.826 273.099 285.382C267.073 249.938 283.166 212.376 317.615 174.769C352.059 137.168 404.794 99.5925 471.873 64.1521C606.025 -6.72614 797.444 -69.0098 1014.33 -105.881C1231.22 -142.753 1432.46 -147.225 1582.5 -124.66C1657.52 -113.377 1719.71 -95.339 1764.65 -71.2326C1809.59 -47.1224 1837.19 -16.9891 1843.22 18.455Z" stroke="#4B4981"/>
    <path d="M2016.61 -6.39777C2023.86 36.2627 2004.49 81.455 1963.06 126.683C1921.63 171.904 1858.22 217.09 1777.56 259.704C1616.25 344.931 1386.08 419.821 1125.3 464.155C864.522 508.489 622.54 513.866 442.129 486.733C351.92 473.167 277.134 451.476 223.093 422.484C169.044 393.488 135.827 357.236 128.574 314.576C121.322 271.915 140.693 226.723 182.124 181.496C223.548 136.274 286.965 91.0883 367.623 48.4736C528.932 -36.7531 759.097 -111.643 1019.88 -155.977C1280.66 -200.311 1522.64 -205.688 1703.05 -178.555C1793.26 -164.988 1868.05 -143.298 1922.09 -114.306C1976.14 -85.3102 2009.35 -49.0583 2016.61 -6.39777Z" stroke="#4B4981"/>
    <path d="M2185.56 -31.2264C2194.02 18.5526 2171.42 71.2722 2123.1 124.017C2074.79 176.755 2000.84 229.448 1906.78 279.139C1718.69 378.52 1450.3 465.844 1146.22 517.539C842.142 569.234 559.979 575.505 349.607 543.866C244.417 528.047 157.206 502.753 94.1811 468.942C31.1495 435.127 -7.6083 392.839 -16.0709 343.06C-24.5336 293.282 -1.92737 240.562 46.3887 187.817C94.6993 135.079 168.653 82.3864 262.705 32.6948C450.804 -66.6857 719.187 -154.01 1023.27 -205.705C1327.35 -257.4 1609.51 -263.671 1819.88 -232.032C1925.07 -216.212 2012.28 -190.919 2075.31 -157.108C2138.34 -123.293 2177.1 -81.0053 2185.56 -31.2264Z" stroke="#4B4981"/>
    </g>
    <defs>
    <clipPath id="clip0_4_4560">
    <rect width="1032" height="566" fill="white"/>
    </clipPath>
    </defs>
    </svg>
    